<svg xmlns="http://www.w3.org/2000/svg" width="128" height="128" viewBox="0 0 128 128" fill="none">
  <defs>
    <filter id="s" x="-20%" y="-20%" width="140%" height="140%">
      <feGaussianBlur in="SourceAlpha" stdDeviation="2"/>
      <feOffset dx="0" dy="2" result="o"/>
      <feColorMatrix in="o" type="matrix" values="0 0 0 0 0   0 0 0 0 0   0 0 0 0 0   0 0 0 .35 0"/>
      <feMerge><feMergeNode/><feMergeNode in="SourceGraphic"/></feMerge>
    </filter>
  </defs>

  <!-- Rays -->
  <g stroke="#F59E0B" stroke-width="6" stroke-linecap="round">
    <line x1="64" y1="10" x2="64" y2="24"/>
    <line x1="64" y1="104" x2="64" y2="118"/>
    <line x1="10" y1="64" x2="24" y2="64"/>
    <line x1="104" y1="64" x2="118" y2="64"/>
    <line x1="22" y1="22" x2="32" y2="32"/>
    <line x1="96" y1="96" x2="106" y2="106"/>
    <line x1="22" y1="106" x2="32" y2="96"/>
    <line x1="96" y1="32" x2="106" y2="22"/>
  </g>

  <!-- Bulb -->
  <g filter="url(#s)">
    <circle cx="64" cy="56" r="24" fill="#2196F3"/>
    <circle cx="64" cy="56" r="8" fill="#FBBF24"/>
    <rect x="56" y="78" width="16" height="10" rx="4" fill="#1677C7"/>
    <rect x="54" y="86" width="20" height="20" rx="5" fill="#2563EB"/>
    <path d="M54 97 H74 V106 H54 Z" fill="#1E40AF"/>
    <path d="M50 55c2-10 10-18 20-20" stroke="white" stroke-opacity=".35" stroke-width="3" stroke-linecap="round"/>
  </g>
</svg>
